<svg viewBox="0 0 24 24" xmlns="http://www.w3.org/2000/svg"><path d="M23.7 20.308a11.919 11.919 0 0 0-5.342-7.466 8 8 0 1 0-12.709 0 11.894 11.894 0 0 0-5.344 7.465 3.01 3.01 0 0 0 .582 2.561A2.977 2.977 0 0 0 3.23 24h17.54a2.977 2.977 0 0 0 2.343-1.132 3.008 3.008 0 0 0 .587-2.56ZM12 2a6 6 0 1 1-6 6 6.006 6.006 0 0 1 6-6Zm9.549 19.623a.982.982 0 0 1-.779.377H3.23a.982.982 0 0 1-.779-.377 1.026 1.026 0 0 1-.2-.87A9.9 9.9 0 0 1 7.1 14.306a7.949 7.949 0 0 0 9.813 0 9.925 9.925 0 0 1 4.838 6.45 1.024 1.024 0 0 1-.202.867Z" data-name="31. User" fill="#bba67c" class="fill-000000"></path></svg>